<svg width="637" height="662" viewBox="0 0 637 662" fill="none" xmlns="http://www.w3.org/2000/svg">
<path d="M0 25H95.5V85H60V602H577V85H344.5V25H637V662H0V25Z" fill="white"/>
<path d="M174.059 94.8C168.659 94.8 163.759 93.85 159.359 91.95C155.059 90.05 151.359 87.35 148.259 83.85C145.259 80.25 142.959 76 141.359 71.1C139.759 66.1 138.959 60.5 138.959 54.3C138.959 48.2 139.759 42.65 141.359 37.65C142.959 32.65 145.259 28.4 148.259 24.9C151.359 21.3 155.059 18.55 159.359 16.65C163.759 14.75 168.659 13.8 174.059 13.8C179.459 13.8 184.309 14.75 188.609 16.65C193.009 18.55 196.709 21.3 199.709 24.9C202.809 28.4 205.159 32.65 206.759 37.65C208.359 42.65 209.159 48.2 209.159 54.3C209.159 60.5 208.359 66.1 206.759 71.1C205.159 76 202.809 80.25 199.709 83.85C196.709 87.35 193.009 90.05 188.609 91.95C184.309 93.85 179.459 94.8 174.059 94.8ZM174.059 84.45C180.759 84.45 186.159 82.45 190.259 78.45C194.359 74.45 196.409 68.25 196.409 59.85V48.75C196.409 40.35 194.359 34.15 190.259 30.15C186.159 26.15 180.759 24.15 174.059 24.15C167.359 24.15 161.959 26.15 157.859 30.15C153.759 34.15 151.709 40.35 151.709 48.75V59.85C151.709 68.25 153.759 74.45 157.859 78.45C161.959 82.45 167.359 84.45 174.059 84.45ZM264.9 94.8C256.8 94.8 249.8 93.45 243.9 90.75C238.1 87.95 233.15 84.25 229.05 79.65L237.15 72.6C240.85 76.5 244.9 79.5 249.3 81.6C253.7 83.7 259 84.75 265.2 84.75C271.2 84.75 276.1 83.7 279.9 81.6C283.8 79.4 285.75 76 285.75 71.4C285.75 69.4 285.35 67.75 284.55 66.45C283.85 65.05 282.85 63.95 281.55 63.15C280.25 62.35 278.8 61.75 277.2 61.35C275.6 60.85 273.9 60.45 272.1 60.15L259.95 58.35C257.25 57.95 254.3 57.4 251.1 56.7C248 56 245.15 54.9 242.55 53.4C239.95 51.8 237.75 49.7 235.95 47.1C234.25 44.5 233.4 41.1 233.4 36.9C233.4 33 234.15 29.65 235.65 26.85C237.25 23.95 239.45 21.55 242.25 19.65C245.05 17.65 248.35 16.2 252.15 15.3C255.95 14.3 260.1 13.8 264.6 13.8C271.6 13.8 277.65 14.9 282.75 17.1C287.95 19.3 292.4 22.35 296.1 26.25L288.3 33.6C287.4 32.5 286.25 31.4 284.85 30.3C283.55 29.1 281.9 28.05 279.9 27.15C278 26.15 275.75 25.35 273.15 24.75C270.55 24.15 267.55 23.85 264.15 23.85C258.05 23.85 253.35 24.9 250.05 27C246.85 29.1 245.25 32.15 245.25 36.15C245.25 38.15 245.6 39.85 246.3 41.25C247.1 42.55 248.15 43.6 249.45 44.4C250.75 45.2 252.2 45.85 253.8 46.35C255.5 46.75 257.2 47.1 258.9 47.4L271.05 49.2C273.85 49.6 276.8 50.15 279.9 50.85C283 51.55 285.85 52.7 288.45 54.3C291.05 55.8 293.2 57.85 294.9 60.45C296.7 63.05 297.6 66.45 297.6 70.65C297.6 78.35 294.6 84.3 288.6 88.5C282.7 92.7 274.8 94.8 264.9 94.8Z" fill="white"/>
</svg>
